G04 #@! TF.GenerationSoftware,KiCad,Pcbnew,(5.1.9-0-10_14)*
G04 #@! TF.CreationDate,2021-04-11T20:09:15+09:00*
G04 #@! TF.ProjectId,RL78DebugConnector,524c3738-4465-4627-9567-436f6e6e6563,V1.0*
G04 #@! TF.SameCoordinates,Original*
G04 #@! TF.FileFunction,Soldermask,Top*
G04 #@! TF.FilePolarity,Negative*
%FSLAX46Y46*%
G04 Gerber Fmt 4.6, Leading zero omitted, Abs format (unit mm)*
G04 Created by KiCad (PCBNEW (5.1.9-0-10_14)) date 2021-04-11 20:09:15*
%MOMM*%
%LPD*%
G01*
G04 APERTURE LIST*
%ADD10R,2.000000X1.000000*%
%ADD11C,1.700000*%
%ADD12R,2.000000X2.000000*%
G04 APERTURE END LIST*
D10*
X6000000Y1500000D03*
X8700000Y750000D03*
X6000000Y0D03*
X8700000Y-750000D03*
X6000000Y-1500000D03*
G36*
G01*
X-7880000Y-7020000D02*
X-7880000Y-8220000D01*
G75*
G02*
X-8130000Y-8470000I-250000J0D01*
G01*
X-9330000Y-8470000D01*
G75*
G02*
X-9580000Y-8220000I0J250000D01*
G01*
X-9580000Y-7020000D01*
G75*
G02*
X-9330000Y-6770000I250000J0D01*
G01*
X-8130000Y-6770000D01*
G75*
G02*
X-7880000Y-7020000I0J-250000D01*
G01*
G37*
D11*
X-8730000Y-5080000D03*
X-8730000Y-2540000D03*
X-8730000Y0D03*
X-8730000Y2540000D03*
X-8730000Y5080000D03*
X-8730000Y7620000D03*
X-11270000Y-7620000D03*
X-11270000Y-5080000D03*
X-11270000Y-2540000D03*
X-11270000Y0D03*
X-11270000Y2540000D03*
X-11270000Y5080000D03*
X-11270000Y7620000D03*
D12*
X1500000Y-3000000D03*
X1500000Y3000000D03*
G36*
G01*
X-4850000Y-225000D02*
X-4850000Y225000D01*
G75*
G02*
X-4625000Y450000I225000J0D01*
G01*
X-4075000Y450000D01*
G75*
G02*
X-3850000Y225000I0J-225000D01*
G01*
X-3850000Y-225000D01*
G75*
G02*
X-4075000Y-450000I-225000J0D01*
G01*
X-4625000Y-450000D01*
G75*
G02*
X-4850000Y-225000I0J225000D01*
G01*
G37*
G36*
G01*
X-3150000Y-225000D02*
X-3150000Y225000D01*
G75*
G02*
X-2925000Y450000I225000J0D01*
G01*
X-2375000Y450000D01*
G75*
G02*
X-2150000Y225000I0J-225000D01*
G01*
X-2150000Y-225000D01*
G75*
G02*
X-2375000Y-450000I-225000J0D01*
G01*
X-2925000Y-450000D01*
G75*
G02*
X-3150000Y-225000I0J225000D01*
G01*
G37*
G36*
G01*
X-4850000Y-1725000D02*
X-4850000Y-1275000D01*
G75*
G02*
X-4625000Y-1050000I225000J0D01*
G01*
X-4075000Y-1050000D01*
G75*
G02*
X-3850000Y-1275000I0J-225000D01*
G01*
X-3850000Y-1725000D01*
G75*
G02*
X-4075000Y-1950000I-225000J0D01*
G01*
X-4625000Y-1950000D01*
G75*
G02*
X-4850000Y-1725000I0J225000D01*
G01*
G37*
G36*
G01*
X-3150000Y-1725000D02*
X-3150000Y-1275000D01*
G75*
G02*
X-2925000Y-1050000I225000J0D01*
G01*
X-2375000Y-1050000D01*
G75*
G02*
X-2150000Y-1275000I0J-225000D01*
G01*
X-2150000Y-1725000D01*
G75*
G02*
X-2375000Y-1950000I-225000J0D01*
G01*
X-2925000Y-1950000D01*
G75*
G02*
X-3150000Y-1725000I0J225000D01*
G01*
G37*
G36*
G01*
X-2150000Y1725000D02*
X-2150000Y1275000D01*
G75*
G02*
X-2375000Y1050000I-225000J0D01*
G01*
X-2925000Y1050000D01*
G75*
G02*
X-3150000Y1275000I0J225000D01*
G01*
X-3150000Y1725000D01*
G75*
G02*
X-2925000Y1950000I225000J0D01*
G01*
X-2375000Y1950000D01*
G75*
G02*
X-2150000Y1725000I0J-225000D01*
G01*
G37*
G36*
G01*
X-3850000Y1725000D02*
X-3850000Y1275000D01*
G75*
G02*
X-4075000Y1050000I-225000J0D01*
G01*
X-4625000Y1050000D01*
G75*
G02*
X-4850000Y1275000I0J225000D01*
G01*
X-4850000Y1725000D01*
G75*
G02*
X-4625000Y1950000I225000J0D01*
G01*
X-4075000Y1950000D01*
G75*
G02*
X-3850000Y1725000I0J-225000D01*
G01*
G37*
M02*
