G04 #@! TF.GenerationSoftware,KiCad,Pcbnew,(5.1.9-0-10_14)*
G04 #@! TF.CreationDate,2021-04-11T20:09:15+09:00*
G04 #@! TF.ProjectId,RL78DebugConnector,524c3738-4465-4627-9567-436f6e6e6563,V1.0*
G04 #@! TF.SameCoordinates,Original*
G04 #@! TF.FileFunction,Legend,Bot*
G04 #@! TF.FilePolarity,Positive*
%FSLAX46Y46*%
G04 Gerber Fmt 4.6, Leading zero omitted, Abs format (unit mm)*
G04 Created by KiCad (PCBNEW (5.1.9-0-10_14)) date 2021-04-11 20:09:15*
%MOMM*%
%LPD*%
G01*
G04 APERTURE LIST*
%ADD10C,0.200000*%
G04 APERTURE END LIST*
D10*
X-3107142Y1257142D02*
X-3678571Y1657142D01*
X-3107142Y1942857D02*
X-4307142Y1942857D01*
X-4307142Y1485714D01*
X-4250000Y1371428D01*
X-4192857Y1314285D01*
X-4078571Y1257142D01*
X-3907142Y1257142D01*
X-3792857Y1314285D01*
X-3735714Y1371428D01*
X-3678571Y1485714D01*
X-3678571Y1942857D01*
X-3107142Y171428D02*
X-3107142Y742857D01*
X-4307142Y742857D01*
X-4307142Y-114285D02*
X-4307142Y-914285D01*
X-3107142Y-400000D01*
X-3792857Y-1542857D02*
X-3850000Y-1428571D01*
X-3907142Y-1371428D01*
X-4021428Y-1314285D01*
X-4078571Y-1314285D01*
X-4192857Y-1371428D01*
X-4250000Y-1428571D01*
X-4307142Y-1542857D01*
X-4307142Y-1771428D01*
X-4250000Y-1885714D01*
X-4192857Y-1942857D01*
X-4078571Y-2000000D01*
X-4021428Y-2000000D01*
X-3907142Y-1942857D01*
X-3850000Y-1885714D01*
X-3792857Y-1771428D01*
X-3792857Y-1542857D01*
X-3735714Y-1428571D01*
X-3678571Y-1371428D01*
X-3564285Y-1314285D01*
X-3335714Y-1314285D01*
X-3221428Y-1371428D01*
X-3164285Y-1428571D01*
X-3107142Y-1542857D01*
X-3107142Y-1771428D01*
X-3164285Y-1885714D01*
X-3221428Y-1942857D01*
X-3335714Y-2000000D01*
X-3564285Y-2000000D01*
X-3678571Y-1942857D01*
X-3735714Y-1885714D01*
X-3792857Y-1771428D01*
X-1107142Y2457142D02*
X-2307142Y2457142D01*
X-2307142Y2171428D01*
X-2250000Y2000000D01*
X-2135714Y1885714D01*
X-2021428Y1828571D01*
X-1792857Y1771428D01*
X-1621428Y1771428D01*
X-1392857Y1828571D01*
X-1278571Y1885714D01*
X-1164285Y2000000D01*
X-1107142Y2171428D01*
X-1107142Y2457142D01*
X-1164285Y800000D02*
X-1107142Y914285D01*
X-1107142Y1142857D01*
X-1164285Y1257142D01*
X-1278571Y1314285D01*
X-1735714Y1314285D01*
X-1850000Y1257142D01*
X-1907142Y1142857D01*
X-1907142Y914285D01*
X-1850000Y800000D01*
X-1735714Y742857D01*
X-1621428Y742857D01*
X-1507142Y1314285D01*
X-1107142Y228571D02*
X-2307142Y228571D01*
X-1850000Y228571D02*
X-1907142Y114285D01*
X-1907142Y-114285D01*
X-1850000Y-228571D01*
X-1792857Y-285714D01*
X-1678571Y-342857D01*
X-1335714Y-342857D01*
X-1221428Y-285714D01*
X-1164285Y-228571D01*
X-1107142Y-114285D01*
X-1107142Y114285D01*
X-1164285Y228571D01*
X-1907142Y-1371428D02*
X-1107142Y-1371428D01*
X-1907142Y-857142D02*
X-1278571Y-857142D01*
X-1164285Y-914285D01*
X-1107142Y-1028571D01*
X-1107142Y-1200000D01*
X-1164285Y-1314285D01*
X-1221428Y-1371428D01*
X-1907142Y-2457142D02*
X-935714Y-2457142D01*
X-821428Y-2400000D01*
X-764285Y-2342857D01*
X-707142Y-2228571D01*
X-707142Y-2057142D01*
X-764285Y-1942857D01*
X-1164285Y-2457142D02*
X-1107142Y-2342857D01*
X-1107142Y-2114285D01*
X-1164285Y-2000000D01*
X-1221428Y-1942857D01*
X-1335714Y-1885714D01*
X-1678571Y-1885714D01*
X-1792857Y-1942857D01*
X-1850000Y-2000000D01*
X-1907142Y-2114285D01*
X-1907142Y-2342857D01*
X-1850000Y-2457142D01*
X778571Y3542857D02*
X835714Y3599999D01*
X892857Y3771428D01*
X892857Y3885714D01*
X835714Y4057142D01*
X721428Y4171428D01*
X607142Y4228571D01*
X378571Y4285714D01*
X207142Y4285714D01*
X-21428Y4228571D01*
X-135714Y4171428D01*
X-249999Y4057142D01*
X-307142Y3885714D01*
X-307142Y3771428D01*
X-249999Y3599999D01*
X-192857Y3542857D01*
X892857Y2857142D02*
X835714Y2971428D01*
X778571Y3028571D01*
X664285Y3085714D01*
X321428Y3085714D01*
X207142Y3028571D01*
X150000Y2971428D01*
X92857Y2857142D01*
X92857Y2685714D01*
X150000Y2571428D01*
X207142Y2514285D01*
X321428Y2457142D01*
X664285Y2457142D01*
X778571Y2514285D01*
X835714Y2571428D01*
X892857Y2685714D01*
X892857Y2857142D01*
X92857Y1942857D02*
X892857Y1942857D01*
X207142Y1942857D02*
X150000Y1885714D01*
X92857Y1771428D01*
X92857Y1600000D01*
X150000Y1485714D01*
X264285Y1428571D01*
X892857Y1428571D01*
X92857Y857142D02*
X892857Y857142D01*
X207142Y857142D02*
X150000Y800000D01*
X92857Y685714D01*
X92857Y514285D01*
X150000Y400000D01*
X264285Y342857D01*
X892857Y342857D01*
X835714Y-685714D02*
X892857Y-571428D01*
X892857Y-342857D01*
X835714Y-228571D01*
X721428Y-171428D01*
X264285Y-171428D01*
X150000Y-228571D01*
X92857Y-342857D01*
X92857Y-571428D01*
X149999Y-685714D01*
X264285Y-742857D01*
X378571Y-742857D01*
X492857Y-171428D01*
X835714Y-1771428D02*
X892857Y-1657142D01*
X892857Y-1428571D01*
X835714Y-1314285D01*
X778571Y-1257142D01*
X664285Y-1200000D01*
X321428Y-1200000D01*
X207142Y-1257142D01*
X149999Y-1314285D01*
X92857Y-1428571D01*
X92857Y-1657142D01*
X149999Y-1771428D01*
X92857Y-2114285D02*
X92857Y-2571428D01*
X-307142Y-2285714D02*
X721428Y-2285714D01*
X835714Y-2342857D01*
X892857Y-2457142D01*
X892857Y-2571428D01*
X892857Y-3142857D02*
X835714Y-3028571D01*
X778571Y-2971428D01*
X664285Y-2914285D01*
X321428Y-2914285D01*
X207142Y-2971428D01*
X149999Y-3028571D01*
X92857Y-3142857D01*
X92857Y-3314285D01*
X149999Y-3428571D01*
X207142Y-3485714D01*
X321428Y-3542857D01*
X664285Y-3542857D01*
X778571Y-3485714D01*
X835714Y-3428571D01*
X892857Y-3314285D01*
X892857Y-3142857D01*
X892857Y-4057142D02*
X92857Y-4057142D01*
X321428Y-4057142D02*
X207142Y-4114285D01*
X149999Y-4171428D01*
X92857Y-4285714D01*
X92857Y-4400000D01*
X1692857Y1828571D02*
X2892857Y1428571D01*
X1692857Y1028571D01*
X2892857Y0D02*
X2892857Y685714D01*
X2892857Y342857D02*
X1692857Y342857D01*
X1864285Y457142D01*
X1978571Y571428D01*
X2035714Y685714D01*
X2778571Y-514285D02*
X2835714Y-571428D01*
X2892857Y-514285D01*
X2835714Y-457142D01*
X2778571Y-514285D01*
X2892857Y-514285D01*
X1692857Y-1314285D02*
X1692857Y-1428571D01*
X1750000Y-1542857D01*
X1807142Y-1599999D01*
X1921428Y-1657142D01*
X2150000Y-1714285D01*
X2435714Y-1714285D01*
X2664285Y-1657142D01*
X2778571Y-1599999D01*
X2835714Y-1542857D01*
X2892857Y-1428571D01*
X2892857Y-1314285D01*
X2835714Y-1199999D01*
X2778571Y-1142857D01*
X2664285Y-1085714D01*
X2435714Y-1028571D01*
X2150000Y-1028571D01*
X1921428Y-1085714D01*
X1807142Y-1142857D01*
X1750000Y-1199999D01*
X1692857Y-1314285D01*
M02*
