G04 #@! TF.GenerationSoftware,KiCad,Pcbnew,(5.1.9-0-10_14)*
G04 #@! TF.CreationDate,2021-04-11T20:09:15+09:00*
G04 #@! TF.ProjectId,RL78DebugConnector,524c3738-4465-4627-9567-436f6e6e6563,V1.0*
G04 #@! TF.SameCoordinates,Original*
G04 #@! TF.FileFunction,Copper,L2,Bot*
G04 #@! TF.FilePolarity,Positive*
%FSLAX46Y46*%
G04 Gerber Fmt 4.6, Leading zero omitted, Abs format (unit mm)*
G04 Created by KiCad (PCBNEW (5.1.9-0-10_14)) date 2021-04-11 20:09:15*
%MOMM*%
%LPD*%
G01*
G04 APERTURE LIST*
G04 #@! TA.AperFunction,ComponentPad*
%ADD10R,2.000000X1.000000*%
G04 #@! TD*
G04 #@! TA.AperFunction,ComponentPad*
%ADD11C,1.700000*%
G04 #@! TD*
G04 #@! TA.AperFunction,ViaPad*
%ADD12C,0.609600*%
G04 #@! TD*
G04 #@! TA.AperFunction,Conductor*
%ADD13C,0.304800*%
G04 #@! TD*
G04 #@! TA.AperFunction,Conductor*
%ADD14C,0.254000*%
G04 #@! TD*
G04 #@! TA.AperFunction,Conductor*
%ADD15C,0.100000*%
G04 #@! TD*
G04 APERTURE END LIST*
D10*
X6000000Y1500000D03*
X8700000Y750000D03*
X6000000Y0D03*
X8700000Y-750000D03*
X6000000Y-1500000D03*
G04 #@! TA.AperFunction,ComponentPad*
G36*
G01*
X-7880000Y-7020000D02*
X-7880000Y-8220000D01*
G75*
G02*
X-8130000Y-8470000I-250000J0D01*
G01*
X-9330000Y-8470000D01*
G75*
G02*
X-9580000Y-8220000I0J250000D01*
G01*
X-9580000Y-7020000D01*
G75*
G02*
X-9330000Y-6770000I250000J0D01*
G01*
X-8130000Y-6770000D01*
G75*
G02*
X-7880000Y-7020000I0J-250000D01*
G01*
G37*
G04 #@! TD.AperFunction*
D11*
X-8730000Y-5080000D03*
X-8730000Y-2540000D03*
X-8730000Y0D03*
X-8730000Y2540000D03*
X-8730000Y5080000D03*
X-8730000Y7620000D03*
X-11270000Y-7620000D03*
X-11270000Y-5080000D03*
X-11270000Y-2540000D03*
X-11270000Y0D03*
X-11270000Y2540000D03*
X-11270000Y5080000D03*
X-11270000Y7620000D03*
D12*
X-500000Y0D03*
D13*
X1000000Y-1500000D02*
X-500000Y0D01*
X6000000Y-1500000D02*
X1000000Y-1500000D01*
D14*
X-6260000Y5467582D02*
X-6257251Y5439672D01*
X-6257272Y5436692D01*
X-6256373Y5427521D01*
X-6251309Y5379337D01*
X-6250450Y5370618D01*
X-6250362Y5370327D01*
X-6246173Y5330473D01*
X-6234139Y5271848D01*
X-6222936Y5213116D01*
X-6220272Y5204294D01*
X-6191416Y5111075D01*
X-6168233Y5055925D01*
X-6145825Y5000463D01*
X-6141498Y4992327D01*
X-6095086Y4906489D01*
X-6061638Y4856902D01*
X-6028881Y4806844D01*
X-6023057Y4799703D01*
X-5960855Y4724514D01*
X-5918406Y4682361D01*
X-5876561Y4639629D01*
X-5869460Y4633755D01*
X-5793840Y4572079D01*
X-5743975Y4538948D01*
X-5694650Y4505175D01*
X-5686555Y4500798D01*
X-5686552Y4500796D01*
X-5686549Y4500795D01*
X-5686544Y4500792D01*
X-5600383Y4454980D01*
X-5545091Y4432191D01*
X-5490102Y4408622D01*
X-5481299Y4405897D01*
X-5387881Y4377692D01*
X-5329174Y4366067D01*
X-5270684Y4353635D01*
X-5261530Y4352673D01*
X-5261524Y4352672D01*
X-5261519Y4352672D01*
X-5164402Y4343150D01*
X-5132419Y4340000D01*
X9340000Y4340000D01*
X9340000Y1888072D01*
X7700000Y1888072D01*
X7638072Y1881973D01*
X7638072Y2000000D01*
X7625812Y2124482D01*
X7589502Y2244180D01*
X7530537Y2354494D01*
X7451185Y2451185D01*
X7354494Y2530537D01*
X7244180Y2589502D01*
X7124482Y2625812D01*
X7000000Y2638072D01*
X5000000Y2638072D01*
X4875518Y2625812D01*
X4755820Y2589502D01*
X4645506Y2530537D01*
X4548815Y2451185D01*
X4469463Y2354494D01*
X4410498Y2244180D01*
X4374188Y2124482D01*
X4361928Y2000000D01*
X4361928Y1000000D01*
X4374188Y875518D01*
X4410498Y755820D01*
X4413609Y750000D01*
X4410498Y744180D01*
X4374188Y624482D01*
X4361928Y500000D01*
X4361928Y-500000D01*
X4374188Y-624482D01*
X4410498Y-744180D01*
X4413609Y-750000D01*
X4410498Y-755820D01*
X4374188Y-875518D01*
X4361928Y-1000000D01*
X4365000Y-1214250D01*
X4523750Y-1373000D01*
X5873000Y-1373000D01*
X5873000Y-1353000D01*
X6127000Y-1353000D01*
X6127000Y-1373000D01*
X6147000Y-1373000D01*
X6147000Y-1627000D01*
X6127000Y-1627000D01*
X6127000Y-2476250D01*
X6285750Y-2635000D01*
X7000000Y-2638072D01*
X7124482Y-2625812D01*
X7244180Y-2589502D01*
X7354494Y-2530537D01*
X7451185Y-2451185D01*
X7530537Y-2354494D01*
X7589502Y-2244180D01*
X7625812Y-2124482D01*
X7638072Y-2000000D01*
X7636377Y-1881806D01*
X7700000Y-1888072D01*
X9340001Y-1888072D01*
X9340001Y-4340000D01*
X-5132419Y-4340000D01*
X-5160329Y-4342749D01*
X-5163307Y-4342728D01*
X-5172478Y-4343627D01*
X-5220640Y-4348689D01*
X-5229383Y-4349550D01*
X-5229675Y-4349638D01*
X-5269527Y-4353827D01*
X-5328146Y-4365860D01*
X-5386884Y-4377064D01*
X-5395706Y-4379728D01*
X-5488925Y-4408584D01*
X-5544063Y-4431762D01*
X-5599537Y-4454175D01*
X-5607666Y-4458498D01*
X-5607670Y-4458500D01*
X-5607673Y-4458502D01*
X-5693511Y-4504915D01*
X-5743087Y-4538355D01*
X-5793156Y-4571119D01*
X-5800297Y-4576943D01*
X-5875486Y-4639145D01*
X-5917639Y-4681594D01*
X-5960371Y-4723439D01*
X-5966245Y-4730540D01*
X-6027921Y-4806161D01*
X-6061012Y-4855966D01*
X-6094826Y-4905350D01*
X-6099208Y-4913456D01*
X-6145020Y-4999617D01*
X-6167809Y-5054909D01*
X-6191378Y-5109898D01*
X-6194103Y-5118701D01*
X-6222308Y-5212119D01*
X-6233933Y-5270826D01*
X-6246365Y-5329316D01*
X-6247327Y-5338470D01*
X-6247328Y-5338476D01*
X-6247328Y-5338481D01*
X-6256850Y-5435598D01*
X-6256850Y-5435608D01*
X-6259999Y-5467581D01*
X-6260000Y-12040000D01*
X-13740000Y-12040000D01*
X-13740000Y-8648397D01*
X-12118792Y-8648397D01*
X-12041157Y-8897472D01*
X-11777117Y-9023371D01*
X-11493589Y-9095339D01*
X-11201469Y-9110611D01*
X-10911981Y-9068599D01*
X-10636253Y-8970919D01*
X-10498843Y-8897472D01*
X-10421208Y-8648397D01*
X-11270000Y-7799605D01*
X-12118792Y-8648397D01*
X-13740000Y-8648397D01*
X-13740000Y-7688531D01*
X-12760611Y-7688531D01*
X-12718599Y-7978019D01*
X-12620919Y-8253747D01*
X-12547472Y-8391157D01*
X-12298397Y-8468792D01*
X-11449605Y-7620000D01*
X-12298397Y-6771208D01*
X-12547472Y-6848843D01*
X-12673371Y-7112883D01*
X-12745339Y-7396411D01*
X-12760611Y-7688531D01*
X-13740000Y-7688531D01*
X-13740000Y2686260D01*
X-12755000Y2686260D01*
X-12755000Y2393740D01*
X-12697932Y2106842D01*
X-12585990Y1836589D01*
X-12423475Y1593368D01*
X-12216632Y1386525D01*
X-12042240Y1270000D01*
X-12216632Y1153475D01*
X-12423475Y946632D01*
X-12585990Y703411D01*
X-12697932Y433158D01*
X-12755000Y146260D01*
X-12755000Y-146260D01*
X-12697932Y-433158D01*
X-12585990Y-703411D01*
X-12423475Y-946632D01*
X-12216632Y-1153475D01*
X-12042240Y-1270000D01*
X-12216632Y-1386525D01*
X-12423475Y-1593368D01*
X-12585990Y-1836589D01*
X-12697932Y-2106842D01*
X-12755000Y-2393740D01*
X-12755000Y-2686260D01*
X-12697932Y-2973158D01*
X-12585990Y-3243411D01*
X-12423475Y-3486632D01*
X-12216632Y-3693475D01*
X-12042240Y-3810000D01*
X-12216632Y-3926525D01*
X-12423475Y-4133368D01*
X-12585990Y-4376589D01*
X-12697932Y-4646842D01*
X-12755000Y-4933740D01*
X-12755000Y-5226260D01*
X-12697932Y-5513158D01*
X-12585990Y-5783411D01*
X-12423475Y-6026632D01*
X-12216632Y-6233475D01*
X-12043271Y-6349311D01*
X-12118792Y-6591603D01*
X-11270000Y-7440395D01*
X-11255858Y-7426253D01*
X-11076253Y-7605858D01*
X-11090395Y-7620000D01*
X-10241603Y-8468792D01*
X-10183580Y-8450707D01*
X-10150472Y-8559850D01*
X-10068405Y-8713386D01*
X-9957962Y-8847962D01*
X-9823386Y-8958405D01*
X-9669850Y-9040472D01*
X-9503254Y-9091008D01*
X-9330000Y-9108072D01*
X-8130000Y-9108072D01*
X-7956746Y-9091008D01*
X-7790150Y-9040472D01*
X-7636614Y-8958405D01*
X-7502038Y-8847962D01*
X-7391595Y-8713386D01*
X-7309528Y-8559850D01*
X-7258992Y-8393254D01*
X-7241928Y-8220000D01*
X-7241928Y-7020000D01*
X-7258992Y-6846746D01*
X-7309528Y-6680150D01*
X-7391595Y-6526614D01*
X-7502038Y-6392038D01*
X-7636614Y-6281595D01*
X-7763608Y-6213715D01*
X-7576525Y-6026632D01*
X-7414010Y-5783411D01*
X-7302068Y-5513158D01*
X-7245000Y-5226260D01*
X-7245000Y-4933740D01*
X-7302068Y-4646842D01*
X-7414010Y-4376589D01*
X-7576525Y-4133368D01*
X-7783368Y-3926525D01*
X-7957760Y-3810000D01*
X-7783368Y-3693475D01*
X-7576525Y-3486632D01*
X-7414010Y-3243411D01*
X-7302068Y-2973158D01*
X-7245000Y-2686260D01*
X-7245000Y-2393740D01*
X-7302068Y-2106842D01*
X-7346323Y-2000000D01*
X4361928Y-2000000D01*
X4374188Y-2124482D01*
X4410498Y-2244180D01*
X4469463Y-2354494D01*
X4548815Y-2451185D01*
X4645506Y-2530537D01*
X4755820Y-2589502D01*
X4875518Y-2625812D01*
X5000000Y-2638072D01*
X5714250Y-2635000D01*
X5873000Y-2476250D01*
X5873000Y-1627000D01*
X4523750Y-1627000D01*
X4365000Y-1785750D01*
X4361928Y-2000000D01*
X-7346323Y-2000000D01*
X-7414010Y-1836589D01*
X-7576525Y-1593368D01*
X-7783368Y-1386525D01*
X-7957760Y-1270000D01*
X-7783368Y-1153475D01*
X-7576525Y-946632D01*
X-7414010Y-703411D01*
X-7302068Y-433158D01*
X-7245000Y-146260D01*
X-7245000Y146260D01*
X-7302068Y433158D01*
X-7414010Y703411D01*
X-7576525Y946632D01*
X-7783368Y1153475D01*
X-7957760Y1270000D01*
X-7783368Y1386525D01*
X-7576525Y1593368D01*
X-7414010Y1836589D01*
X-7302068Y2106842D01*
X-7245000Y2393740D01*
X-7245000Y2686260D01*
X-7302068Y2973158D01*
X-7414010Y3243411D01*
X-7576525Y3486632D01*
X-7783368Y3693475D01*
X-7957760Y3810000D01*
X-7783368Y3926525D01*
X-7576525Y4133368D01*
X-7414010Y4376589D01*
X-7302068Y4646842D01*
X-7245000Y4933740D01*
X-7245000Y5226260D01*
X-7302068Y5513158D01*
X-7414010Y5783411D01*
X-7576525Y6026632D01*
X-7783368Y6233475D01*
X-7957760Y6350000D01*
X-7783368Y6466525D01*
X-7576525Y6673368D01*
X-7414010Y6916589D01*
X-7302068Y7186842D01*
X-7245000Y7473740D01*
X-7245000Y7766260D01*
X-7302068Y8053158D01*
X-7414010Y8323411D01*
X-7576525Y8566632D01*
X-7783368Y8773475D01*
X-8026589Y8935990D01*
X-8296842Y9047932D01*
X-8583740Y9105000D01*
X-8876260Y9105000D01*
X-9163158Y9047932D01*
X-9433411Y8935990D01*
X-9676632Y8773475D01*
X-9883475Y8566632D01*
X-9999311Y8393271D01*
X-10241603Y8468792D01*
X-11090395Y7620000D01*
X-11076253Y7605858D01*
X-11255858Y7426253D01*
X-11270000Y7440395D01*
X-12118792Y6591603D01*
X-12043486Y6350000D01*
X-12118792Y6108397D01*
X-11270000Y5259605D01*
X-11255858Y5273748D01*
X-11127000Y5144890D01*
X-11127000Y5015110D01*
X-11255858Y4886253D01*
X-11270000Y4900395D01*
X-12118792Y4051603D01*
X-12043271Y3809311D01*
X-12216632Y3693475D01*
X-12423475Y3486632D01*
X-12585990Y3243411D01*
X-12697932Y2973158D01*
X-12755000Y2686260D01*
X-13740000Y2686260D01*
X-13740000Y5011469D01*
X-12760611Y5011469D01*
X-12718599Y4721981D01*
X-12620919Y4446253D01*
X-12547472Y4308843D01*
X-12298397Y4231208D01*
X-11449605Y5080000D01*
X-12298397Y5928792D01*
X-12547472Y5851157D01*
X-12673371Y5587117D01*
X-12745339Y5303589D01*
X-12760611Y5011469D01*
X-13740000Y5011469D01*
X-13740000Y7551469D01*
X-12760611Y7551469D01*
X-12718599Y7261981D01*
X-12620919Y6986253D01*
X-12547472Y6848843D01*
X-12298397Y6771208D01*
X-11449605Y7620000D01*
X-12298397Y8468792D01*
X-12547472Y8391157D01*
X-12673371Y8127117D01*
X-12745339Y7843589D01*
X-12760611Y7551469D01*
X-13740000Y7551469D01*
X-13740000Y8648397D01*
X-12118792Y8648397D01*
X-11270000Y7799605D01*
X-10421208Y8648397D01*
X-10498843Y8897472D01*
X-10762883Y9023371D01*
X-11046411Y9095339D01*
X-11338531Y9110611D01*
X-11628019Y9068599D01*
X-11903747Y8970919D01*
X-12041157Y8897472D01*
X-12118792Y8648397D01*
X-13740000Y8648397D01*
X-13740000Y12040000D01*
X-6259999Y12040000D01*
X-6260000Y5467582D01*
G04 #@! TA.AperFunction,Conductor*
D15*
G36*
X-6260000Y5467582D02*
G01*
X-6257251Y5439672D01*
X-6257272Y5436692D01*
X-6256373Y5427521D01*
X-6251309Y5379337D01*
X-6250450Y5370618D01*
X-6250362Y5370327D01*
X-6246173Y5330473D01*
X-6234139Y5271848D01*
X-6222936Y5213116D01*
X-6220272Y5204294D01*
X-6191416Y5111075D01*
X-6168233Y5055925D01*
X-6145825Y5000463D01*
X-6141498Y4992327D01*
X-6095086Y4906489D01*
X-6061638Y4856902D01*
X-6028881Y4806844D01*
X-6023057Y4799703D01*
X-5960855Y4724514D01*
X-5918406Y4682361D01*
X-5876561Y4639629D01*
X-5869460Y4633755D01*
X-5793840Y4572079D01*
X-5743975Y4538948D01*
X-5694650Y4505175D01*
X-5686555Y4500798D01*
X-5686552Y4500796D01*
X-5686549Y4500795D01*
X-5686544Y4500792D01*
X-5600383Y4454980D01*
X-5545091Y4432191D01*
X-5490102Y4408622D01*
X-5481299Y4405897D01*
X-5387881Y4377692D01*
X-5329174Y4366067D01*
X-5270684Y4353635D01*
X-5261530Y4352673D01*
X-5261524Y4352672D01*
X-5261519Y4352672D01*
X-5164402Y4343150D01*
X-5132419Y4340000D01*
X9340000Y4340000D01*
X9340000Y1888072D01*
X7700000Y1888072D01*
X7638072Y1881973D01*
X7638072Y2000000D01*
X7625812Y2124482D01*
X7589502Y2244180D01*
X7530537Y2354494D01*
X7451185Y2451185D01*
X7354494Y2530537D01*
X7244180Y2589502D01*
X7124482Y2625812D01*
X7000000Y2638072D01*
X5000000Y2638072D01*
X4875518Y2625812D01*
X4755820Y2589502D01*
X4645506Y2530537D01*
X4548815Y2451185D01*
X4469463Y2354494D01*
X4410498Y2244180D01*
X4374188Y2124482D01*
X4361928Y2000000D01*
X4361928Y1000000D01*
X4374188Y875518D01*
X4410498Y755820D01*
X4413609Y750000D01*
X4410498Y744180D01*
X4374188Y624482D01*
X4361928Y500000D01*
X4361928Y-500000D01*
X4374188Y-624482D01*
X4410498Y-744180D01*
X4413609Y-750000D01*
X4410498Y-755820D01*
X4374188Y-875518D01*
X4361928Y-1000000D01*
X4365000Y-1214250D01*
X4523750Y-1373000D01*
X5873000Y-1373000D01*
X5873000Y-1353000D01*
X6127000Y-1353000D01*
X6127000Y-1373000D01*
X6147000Y-1373000D01*
X6147000Y-1627000D01*
X6127000Y-1627000D01*
X6127000Y-2476250D01*
X6285750Y-2635000D01*
X7000000Y-2638072D01*
X7124482Y-2625812D01*
X7244180Y-2589502D01*
X7354494Y-2530537D01*
X7451185Y-2451185D01*
X7530537Y-2354494D01*
X7589502Y-2244180D01*
X7625812Y-2124482D01*
X7638072Y-2000000D01*
X7636377Y-1881806D01*
X7700000Y-1888072D01*
X9340001Y-1888072D01*
X9340001Y-4340000D01*
X-5132419Y-4340000D01*
X-5160329Y-4342749D01*
X-5163307Y-4342728D01*
X-5172478Y-4343627D01*
X-5220640Y-4348689D01*
X-5229383Y-4349550D01*
X-5229675Y-4349638D01*
X-5269527Y-4353827D01*
X-5328146Y-4365860D01*
X-5386884Y-4377064D01*
X-5395706Y-4379728D01*
X-5488925Y-4408584D01*
X-5544063Y-4431762D01*
X-5599537Y-4454175D01*
X-5607666Y-4458498D01*
X-5607670Y-4458500D01*
X-5607673Y-4458502D01*
X-5693511Y-4504915D01*
X-5743087Y-4538355D01*
X-5793156Y-4571119D01*
X-5800297Y-4576943D01*
X-5875486Y-4639145D01*
X-5917639Y-4681594D01*
X-5960371Y-4723439D01*
X-5966245Y-4730540D01*
X-6027921Y-4806161D01*
X-6061012Y-4855966D01*
X-6094826Y-4905350D01*
X-6099208Y-4913456D01*
X-6145020Y-4999617D01*
X-6167809Y-5054909D01*
X-6191378Y-5109898D01*
X-6194103Y-5118701D01*
X-6222308Y-5212119D01*
X-6233933Y-5270826D01*
X-6246365Y-5329316D01*
X-6247327Y-5338470D01*
X-6247328Y-5338476D01*
X-6247328Y-5338481D01*
X-6256850Y-5435598D01*
X-6256850Y-5435608D01*
X-6259999Y-5467581D01*
X-6260000Y-12040000D01*
X-13740000Y-12040000D01*
X-13740000Y-8648397D01*
X-12118792Y-8648397D01*
X-12041157Y-8897472D01*
X-11777117Y-9023371D01*
X-11493589Y-9095339D01*
X-11201469Y-9110611D01*
X-10911981Y-9068599D01*
X-10636253Y-8970919D01*
X-10498843Y-8897472D01*
X-10421208Y-8648397D01*
X-11270000Y-7799605D01*
X-12118792Y-8648397D01*
X-13740000Y-8648397D01*
X-13740000Y-7688531D01*
X-12760611Y-7688531D01*
X-12718599Y-7978019D01*
X-12620919Y-8253747D01*
X-12547472Y-8391157D01*
X-12298397Y-8468792D01*
X-11449605Y-7620000D01*
X-12298397Y-6771208D01*
X-12547472Y-6848843D01*
X-12673371Y-7112883D01*
X-12745339Y-7396411D01*
X-12760611Y-7688531D01*
X-13740000Y-7688531D01*
X-13740000Y2686260D01*
X-12755000Y2686260D01*
X-12755000Y2393740D01*
X-12697932Y2106842D01*
X-12585990Y1836589D01*
X-12423475Y1593368D01*
X-12216632Y1386525D01*
X-12042240Y1270000D01*
X-12216632Y1153475D01*
X-12423475Y946632D01*
X-12585990Y703411D01*
X-12697932Y433158D01*
X-12755000Y146260D01*
X-12755000Y-146260D01*
X-12697932Y-433158D01*
X-12585990Y-703411D01*
X-12423475Y-946632D01*
X-12216632Y-1153475D01*
X-12042240Y-1270000D01*
X-12216632Y-1386525D01*
X-12423475Y-1593368D01*
X-12585990Y-1836589D01*
X-12697932Y-2106842D01*
X-12755000Y-2393740D01*
X-12755000Y-2686260D01*
X-12697932Y-2973158D01*
X-12585990Y-3243411D01*
X-12423475Y-3486632D01*
X-12216632Y-3693475D01*
X-12042240Y-3810000D01*
X-12216632Y-3926525D01*
X-12423475Y-4133368D01*
X-12585990Y-4376589D01*
X-12697932Y-4646842D01*
X-12755000Y-4933740D01*
X-12755000Y-5226260D01*
X-12697932Y-5513158D01*
X-12585990Y-5783411D01*
X-12423475Y-6026632D01*
X-12216632Y-6233475D01*
X-12043271Y-6349311D01*
X-12118792Y-6591603D01*
X-11270000Y-7440395D01*
X-11255858Y-7426253D01*
X-11076253Y-7605858D01*
X-11090395Y-7620000D01*
X-10241603Y-8468792D01*
X-10183580Y-8450707D01*
X-10150472Y-8559850D01*
X-10068405Y-8713386D01*
X-9957962Y-8847962D01*
X-9823386Y-8958405D01*
X-9669850Y-9040472D01*
X-9503254Y-9091008D01*
X-9330000Y-9108072D01*
X-8130000Y-9108072D01*
X-7956746Y-9091008D01*
X-7790150Y-9040472D01*
X-7636614Y-8958405D01*
X-7502038Y-8847962D01*
X-7391595Y-8713386D01*
X-7309528Y-8559850D01*
X-7258992Y-8393254D01*
X-7241928Y-8220000D01*
X-7241928Y-7020000D01*
X-7258992Y-6846746D01*
X-7309528Y-6680150D01*
X-7391595Y-6526614D01*
X-7502038Y-6392038D01*
X-7636614Y-6281595D01*
X-7763608Y-6213715D01*
X-7576525Y-6026632D01*
X-7414010Y-5783411D01*
X-7302068Y-5513158D01*
X-7245000Y-5226260D01*
X-7245000Y-4933740D01*
X-7302068Y-4646842D01*
X-7414010Y-4376589D01*
X-7576525Y-4133368D01*
X-7783368Y-3926525D01*
X-7957760Y-3810000D01*
X-7783368Y-3693475D01*
X-7576525Y-3486632D01*
X-7414010Y-3243411D01*
X-7302068Y-2973158D01*
X-7245000Y-2686260D01*
X-7245000Y-2393740D01*
X-7302068Y-2106842D01*
X-7346323Y-2000000D01*
X4361928Y-2000000D01*
X4374188Y-2124482D01*
X4410498Y-2244180D01*
X4469463Y-2354494D01*
X4548815Y-2451185D01*
X4645506Y-2530537D01*
X4755820Y-2589502D01*
X4875518Y-2625812D01*
X5000000Y-2638072D01*
X5714250Y-2635000D01*
X5873000Y-2476250D01*
X5873000Y-1627000D01*
X4523750Y-1627000D01*
X4365000Y-1785750D01*
X4361928Y-2000000D01*
X-7346323Y-2000000D01*
X-7414010Y-1836589D01*
X-7576525Y-1593368D01*
X-7783368Y-1386525D01*
X-7957760Y-1270000D01*
X-7783368Y-1153475D01*
X-7576525Y-946632D01*
X-7414010Y-703411D01*
X-7302068Y-433158D01*
X-7245000Y-146260D01*
X-7245000Y146260D01*
X-7302068Y433158D01*
X-7414010Y703411D01*
X-7576525Y946632D01*
X-7783368Y1153475D01*
X-7957760Y1270000D01*
X-7783368Y1386525D01*
X-7576525Y1593368D01*
X-7414010Y1836589D01*
X-7302068Y2106842D01*
X-7245000Y2393740D01*
X-7245000Y2686260D01*
X-7302068Y2973158D01*
X-7414010Y3243411D01*
X-7576525Y3486632D01*
X-7783368Y3693475D01*
X-7957760Y3810000D01*
X-7783368Y3926525D01*
X-7576525Y4133368D01*
X-7414010Y4376589D01*
X-7302068Y4646842D01*
X-7245000Y4933740D01*
X-7245000Y5226260D01*
X-7302068Y5513158D01*
X-7414010Y5783411D01*
X-7576525Y6026632D01*
X-7783368Y6233475D01*
X-7957760Y6350000D01*
X-7783368Y6466525D01*
X-7576525Y6673368D01*
X-7414010Y6916589D01*
X-7302068Y7186842D01*
X-7245000Y7473740D01*
X-7245000Y7766260D01*
X-7302068Y8053158D01*
X-7414010Y8323411D01*
X-7576525Y8566632D01*
X-7783368Y8773475D01*
X-8026589Y8935990D01*
X-8296842Y9047932D01*
X-8583740Y9105000D01*
X-8876260Y9105000D01*
X-9163158Y9047932D01*
X-9433411Y8935990D01*
X-9676632Y8773475D01*
X-9883475Y8566632D01*
X-9999311Y8393271D01*
X-10241603Y8468792D01*
X-11090395Y7620000D01*
X-11076253Y7605858D01*
X-11255858Y7426253D01*
X-11270000Y7440395D01*
X-12118792Y6591603D01*
X-12043486Y6350000D01*
X-12118792Y6108397D01*
X-11270000Y5259605D01*
X-11255858Y5273748D01*
X-11127000Y5144890D01*
X-11127000Y5015110D01*
X-11255858Y4886253D01*
X-11270000Y4900395D01*
X-12118792Y4051603D01*
X-12043271Y3809311D01*
X-12216632Y3693475D01*
X-12423475Y3486632D01*
X-12585990Y3243411D01*
X-12697932Y2973158D01*
X-12755000Y2686260D01*
X-13740000Y2686260D01*
X-13740000Y5011469D01*
X-12760611Y5011469D01*
X-12718599Y4721981D01*
X-12620919Y4446253D01*
X-12547472Y4308843D01*
X-12298397Y4231208D01*
X-11449605Y5080000D01*
X-12298397Y5928792D01*
X-12547472Y5851157D01*
X-12673371Y5587117D01*
X-12745339Y5303589D01*
X-12760611Y5011469D01*
X-13740000Y5011469D01*
X-13740000Y7551469D01*
X-12760611Y7551469D01*
X-12718599Y7261981D01*
X-12620919Y6986253D01*
X-12547472Y6848843D01*
X-12298397Y6771208D01*
X-11449605Y7620000D01*
X-12298397Y8468792D01*
X-12547472Y8391157D01*
X-12673371Y8127117D01*
X-12745339Y7843589D01*
X-12760611Y7551469D01*
X-13740000Y7551469D01*
X-13740000Y8648397D01*
X-12118792Y8648397D01*
X-11270000Y7799605D01*
X-10421208Y8648397D01*
X-10498843Y8897472D01*
X-10762883Y9023371D01*
X-11046411Y9095339D01*
X-11338531Y9110611D01*
X-11628019Y9068599D01*
X-11903747Y8970919D01*
X-12041157Y8897472D01*
X-12118792Y8648397D01*
X-13740000Y8648397D01*
X-13740000Y12040000D01*
X-6259999Y12040000D01*
X-6260000Y5467582D01*
G37*
G04 #@! TD.AperFunction*
M02*
